<svg height="606" width="720" xmlns="http://www.w3.org/2000/svg">
<rect height="606" fill="#555" width="720"></rect>
<text fill="#7f7" font-family="Courier New" font-size="12" xml:space="preserve">
<tspan x="10" y="26">4 megabytes installed</tspan>
<tspan x="10" y="42"></tspan>
<tspan x="10" y="58">node_modules</tspan>
<tspan x="10" y="74">└─┬ tap-spec@4.1.1 </tspan>
<tspan x="10" y="90">  ├─┬ chalk@1.1.3 </tspan>
<tspan x="10" y="106">  │ ├── ansi-styles@2.2.1 </tspan>
<tspan x="10" y="122">  │ ├── escape-string-regexp@1.0.5 </tspan>
<tspan x="10" y="138">  │ ├─┬ has-ansi@2.0.0 </tspan>
<tspan x="10" y="154">  │ │ └── ansi-regex@2.1.1 </tspan>
<tspan x="10" y="170">  │ ├── strip-ansi@3.0.1 </tspan>
<tspan x="10" y="186">  │ └── supports-color@2.0.0 </tspan>
<tspan x="10" y="202">  ├── duplexer@0.1.1 </tspan>
<tspan x="10" y="218">  ├─┬ figures@1.7.0 </tspan>
<tspan x="10" y="234">  │ └── object-assign@4.1.1 </tspan>
<tspan x="10" y="250">  ├── lodash@3.10.1 </tspan>
<tspan x="10" y="266">  ├─┬ pretty-ms@2.1.0 </tspan>
<tspan x="10" y="282">  │ ├─┬ is-finite@1.0.2 </tspan>
<tspan x="10" y="298">  │ │ └── number-is-nan@1.0.1 </tspan>
<tspan x="10" y="314">  │ ├── parse-ms@1.0.1 </tspan>
<tspan x="10" y="330">  │ └── plur@1.0.0 </tspan>
<tspan x="10" y="346">  ├── repeat-string@1.6.1 </tspan>
<tspan x="10" y="362">  ├─┬ tap-out@1.4.2 </tspan>
<tspan x="10" y="378">  │ ├── re-emitter@1.1.3 </tspan>
<tspan x="10" y="394">  │ ├─┬ readable-stream@2.2.9 </tspan>
<tspan x="10" y="410">  │ │ ├── buffer-shims@1.0.0 </tspan>
<tspan x="10" y="426">  │ │ ├── core-util-is@1.0.2 </tspan>
<tspan x="10" y="442">  │ │ ├── inherits@2.0.3 </tspan>
<tspan x="10" y="458">  │ │ ├── isarray@1.0.0 </tspan>
<tspan x="10" y="474">  │ │ ├── process-nextick-args@1.0.7 </tspan>
<tspan x="10" y="490">  │ │ ├── string_decoder@1.0.0 </tspan>
<tspan x="10" y="506">  │ │ └── util-deprecate@1.0.2 </tspan>
<tspan x="10" y="522">  │ ├─┬ split@1.0.0 </tspan>
<tspan x="10" y="538">  │ │ └── through@2.3.8 </tspan>
<tspan x="10" y="554">  │ └── trim@0.0.1 </tspan>
<tspan x="10" y="570">  └─┬ through2@2.0.3 </tspan>
<tspan x="10" y="586">    └── xtend@4.0.1</tspan>
</text>
</svg>
